<?xml version="1.0" standalone="no"?>
<!DOCTYPE svg PUBLIC "-//W3C//DTD SVG 20010904//EN"
 "http://www.w3.org/TR/2001/REC-SVG-20010904/DTD/svg10.dtd">
<svg version="1.0" xmlns="http://www.w3.org/2000/svg"
 width="429.000000pt" height="581.000000pt" viewBox="0 0 429.000000 581.000000"
 preserveAspectRatio="xMidYMid meet">

<g transform="translate(0.000000,581.000000) scale(0.100000,-0.100000)"
fill="#000000" stroke="none">
<path d="M2525 5796 c-38 -17 -56 -54 -62 -131 -5 -70 -22 -145 -33 -145 -4 0
-32 11 -61 25 -94 43 -164 55 -329 57 -171 3 -239 -10 -314 -59 l-38 -25 -29
35 c-35 42 -69 53 -108 33 -29 -16 -135 -125 -236 -244 l-60 -71 -66 0 c-196
-2 -459 -155 -538 -313 -17 -34 -31 -67 -31 -74 0 -7 -23 -17 -52 -23 -28 -7
-66 -21 -84 -32 -71 -43 -160 -218 -188 -367 -9 -46 -22 -109 -30 -140 -44
-179 -48 -348 -9 -400 23 -32 21 -54 -18 -177 -26 -81 -35 -198 -19 -255 15
-56 94 -225 109 -234 6 -4 11 -39 11 -85 0 -144 45 -234 190 -376 45 -44 85
-88 91 -97 10 -18 -19 -121 -45 -163 -23 -37 -56 -148 -56 -191 0 -56 30 -94
74 -94 46 0 73 33 82 97 5 41 15 62 49 102 34 40 44 47 49 34 4 -9 13 -80 21
-157 17 -162 39 -278 112 -601 18 -77 54 -172 85 -223 11 -18 47 -51 79 -73
32 -22 66 -53 74 -70 9 -16 51 -65 93 -107 57 -57 101 -90 169 -126 51 -26
124 -75 162 -107 39 -33 90 -68 113 -78 105 -45 349 -120 411 -126 l67 -7 0
-42 c0 -32 6 -48 23 -64 49 -46 117 -10 117 61 l0 37 179 0 179 0 6 -34 c15
-77 81 -111 127 -65 16 16 20 30 17 67 l-3 47 60 8 c103 13 197 39 271 72 57
26 86 48 150 116 43 46 113 117 155 159 45 44 93 105 119 150 23 41 55 93 70
115 15 22 49 84 75 139 27 54 65 118 87 143 46 54 51 63 84 155 14 40 48 127
74 194 58 142 70 207 70 374 0 69 6 166 14 215 8 50 17 116 21 148 5 46 10 57
22 53 8 -3 21 -6 28 -6 7 0 16 -13 20 -30 8 -36 39 -60 76 -60 22 0 29 -6 34
-30 6 -26 30 -50 50 -50 6 0 3 605 -7 1185 -7 460 -15 504 -127 755 -34 76
-62 125 -85 145 -18 17 -39 48 -46 70 -32 101 -106 229 -168 294 -35 36 -97
110 -138 163 -101 133 -159 188 -236 226 -112 55 -204 73 -354 71 l-132 -3
-66 61 c-127 116 -316 187 -401 149z m195 -177 c59 -31 90 -52 90 -63 0 -4
-12 -11 -27 -17 -23 -8 -30 -6 -57 20 -17 16 -52 39 -78 50 -27 11 -48 24 -48
29 0 29 38 23 120 -19z m-470 -180 c43 -11 193 -92 197 -106 2 -6 -21 -13 -54
-15 -56 -5 -61 -3 -118 37 -33 24 -81 53 -107 66 -27 13 -48 27 -48 32 0 10
70 2 130 -14z m1068 -9 c50 -15 55 -30 11 -30 -32 0 -99 -34 -99 -51 0 -5 -7
-9 -15 -9 -22 0 -107 88 -99 102 9 13 141 6 202 -12z m-364 -25 c21 -32 21
-34 -10 -45 -21 -8 -29 -6 -49 18 -29 33 -30 39 -7 45 37 10 50 6 66 -18z
m-991 -130 c32 -4 57 -9 54 -11 -9 -10 -208 -65 -216 -60 -5 3 -11 15 -14 26
-8 31 38 62 83 56 19 -3 61 -8 93 -11z m-393 -30 c-13 -16 -40 -20 -40 -7 0
14 12 22 33 22 16 0 17 -3 7 -15z m1853 4 c85 -13 135 -39 211 -112 62 -59 72
-83 30 -73 -73 19 -80 18 -112 -9 -19 -16 -34 -40 -38 -61 -3 -19 -12 -34 -18
-34 -34 0 -176 190 -176 235 0 26 16 65 26 65 3 0 38 -5 77 -11z m-1123 -115
c9 -10 -5 -21 -69 -53 -71 -36 -172 -94 -268 -153 l-33 -20 -9 25 c-6 14 -18
35 -27 46 -22 25 -45 79 -36 85 41 24 380 97 414 88 10 -2 22 -10 28 -18z
m848 -22 c13 -17 17 -128 5 -135 -5 -3 -29 14 -55 38 -42 38 -48 48 -48 84 l0
41 43 -6 c23 -4 48 -13 55 -22z m-2008 3 c0 -16 -36 -56 -64 -73 -17 -10 -73
-58 -123 -106 -91 -86 -91 -86 -132 -80 -23 4 -44 11 -47 16 -16 25 77 122
170 178 68 41 196 83 196 65z m1570 -90 c6 -3 10 -15 10 -25 0 -32 -61 -37
-94 -9 -43 37 -35 53 24 46 28 -3 55 -9 60 -12z m-316 -51 c17 -44 9 -50 -87
-67 -111 -20 -114 -20 -100 -6 19 19 147 87 164 88 9 1 20 -6 23 -15z m-756
-58 c44 -23 118 -104 106 -116 -14 -14 -148 5 -194 28 -45 22 -49 45 -13 77
32 28 62 31 101 11z m1768 -68 l64 -53 -4 -78 c-2 -43 -6 -80 -8 -83 -3 -2
-25 3 -49 11 -36 13 -48 22 -57 49 -7 19 -24 51 -38 71 -23 34 -24 39 -10 54
9 10 19 32 22 49 4 18 8 32 11 32 2 0 33 -24 69 -52z m254 31 c0 -5 -4 -9 -10
-9 -5 0 -10 7 -10 16 0 8 5 12 10 9 6 -3 10 -10 10 -16z m-815 -59 c16 -16 46
-42 67 -56 21 -15 38 -31 38 -35 0 -5 -18 -9 -39 -9 -49 0 -173 -25 -224 -45
-44 -18 -47 -18 -47 -5 0 12 159 180 170 180 3 0 19 -13 35 -30z m-465 -61 c0
-19 -123 -133 -195 -181 -180 -119 -250 -159 -289 -170 -38 -10 -48 -9 -87 11
-100 49 -106 68 -48 154 54 82 163 126 429 172 156 27 190 29 190 14z m1310
-45 c0 -32 -23 -94 -41 -110 -33 -30 -49 -11 -43 48 8 76 10 78 49 78 26 0 35
-4 35 -16z m-3080 -114 l0 -120 -33 -37 c-19 -21 -66 -101 -106 -178 -40 -77
-77 -144 -82 -149 -15 -16 -10 52 11 149 11 50 27 126 36 170 28 137 109 285
155 285 18 0 19 -9 19 -120z m164 88 c-14 -68 -23 -75 -23 -20 -1 41 2 52 15
52 12 0 14 -7 8 -32z m814 -23 c56 -9 53 -22 -5 -27 -38 -3 -53 1 -85 24 -51
37 -48 52 5 29 24 -10 62 -22 85 -26z m1606 -101 c57 -10 44 -31 -21 -37 -32
-2 -60 -3 -62 -1 -10 9 21 56 34 51 7 -3 30 -9 49 -13z m-756 -31 c12 -33 33
-183 27 -191 -1 -1 -46 5 -101 13 -54 8 -125 15 -156 15 -32 0 -58 3 -58 8 0
4 40 33 89 65 49 32 107 74 128 92 21 19 43 34 48 35 6 0 16 -17 23 -37z
m1302 -68 c0 -11 -47 -81 -75 -113 -4 -4 -55 77 -55 88 0 5 12 10 28 10 15 1
41 7 57 15 40 18 45 18 45 0z m-312 -48 c42 -42 55 -64 67 -112 9 -33 30 -87
47 -122 l30 -62 -20 -28 c-11 -15 -34 -56 -51 -90 -17 -35 -37 -63 -44 -63 -6
0 -30 11 -52 23 -49 28 -54 52 -26 118 13 28 27 94 33 152 15 134 7 158 -70
203 -7 4 12 34 22 34 6 0 35 -24 64 -53z m-2088 -19 c26 -57 25 -66 -12 -131
-27 -47 -38 -56 -61 -57 -34 0 -34 1 -41 122 l-6 97 37 4 c21 2 44 4 51 5 7 1
22 -17 32 -40z m1682 -13 c242 0 247 0 243 -20 -2 -11 -12 -67 -22 -124 -9
-57 -22 -105 -29 -108 -6 -2 -58 7 -115 21 -57 14 -121 26 -141 26 -23 0 -56
11 -89 31 -28 16 -78 43 -110 59 -62 32 -123 80 -140 112 -10 18 -6 18 73 11
46 -5 194 -8 330 -8z m-1485 -87 c-3 -8 -6 -5 -6 6 -1 11 2 17 5 13 3 -3 4
-12 1 -19z m265 -32 c26 -10 37 -21 36 -33 -6 -69 16 -91 137 -142 50 -21 131
-58 180 -83 199 -100 368 -148 520 -148 78 0 115 23 168 103 25 37 45 57 58
57 11 0 28 4 38 9 11 6 40 4 81 -5 36 -8 93 -20 128 -26 62 -11 63 -11 84 -60
24 -56 71 -93 158 -125 l55 -21 6 -75 c11 -129 80 -222 215 -288 66 -33 68
-37 36 -86 -18 -29 -26 -29 -40 2 -6 14 -26 34 -44 45 -37 22 -42 24 -248 80
l-144 40 -239 0 -239 0 -39 -42 -39 -43 0 -119 0 -119 -22 20 c-42 38 -65 43
-187 43 -127 0 -170 -9 -266 -57 -27 -13 -62 -36 -76 -50 -18 -16 -29 -21 -34
-14 -3 6 -11 57 -16 114 -6 56 -15 116 -20 133 -20 63 -106 68 -129 9 -9 -24
-2 -110 29 -345 6 -41 11 -108 11 -148 0 -82 3 -79 -110 -107 -30 -8 -104 -28
-164 -45 -94 -27 -238 -57 -369 -77 l-38 -6 3 79 3 79 65 3 c35 2 121 -4 190
-13 139 -18 167 -13 196 30 14 21 14 30 4 54 -14 36 -44 48 -133 55 -77 6 -94
13 -78 29 6 6 11 28 11 49 0 35 2 38 28 38 16 0 36 -8 45 -17 8 -10 40 -31 71
-48 45 -24 59 -28 82 -20 16 6 35 22 43 36 20 36 1 80 -44 102 -19 9 -51 32
-72 51 -21 19 -54 37 -74 41 -52 10 -221 -19 -324 -55 -49 -17 -97 -33 -105
-36 -12 -4 -20 15 -38 88 -26 110 -28 138 -7 138 9 0 57 4 108 10 51 5 133 11
182 14 358 20 347 18 367 38 24 24 23 73 -2 98 -18 18 -33 20 -127 20 -60 0
-187 -7 -283 -15 -96 -8 -218 -18 -270 -21 -145 -10 -154 -25 -130 -213 6 -41
8 -76 6 -78 -7 -8 -121 89 -144 124 -21 31 -26 48 -24 92 1 29 5 57 8 62 3 5
31 8 62 7 103 -3 129 27 138 158 6 79 4 95 -16 141 -21 50 -64 98 -120 134
l-25 16 32 27 c20 17 40 49 54 87 12 32 24 59 28 59 3 0 28 -7 55 -15 27 -8
68 -15 90 -15 23 0 51 -3 62 -6 l21 -6 -19 -51 c-11 -29 -22 -88 -25 -132 -5
-76 -4 -81 20 -104 45 -41 101 -40 193 5 106 51 170 115 222 225 40 82 72 204
72 272 0 46 7 49 49 27 20 -11 53 -26 73 -34z m2277 -3 c18 -44 31 -130 31
-200 0 -62 -1 -64 -22 -57 -13 4 -41 10 -62 13 -35 5 -41 10 -53 47 -7 22 -29
58 -48 79 -33 35 -38 37 -80 33 -25 -3 -45 -2 -45 2 0 8 30 82 35 88 2 2 15
-4 28 -13 33 -21 137 -11 170 16 29 24 33 24 46 -8z m-1789 -43 c52 -6 122
-17 155 -25 64 -17 273 -99 288 -114 11 -11 -19 -70 -40 -78 -24 -9 -187 15
-256 38 -60 21 -372 165 -391 181 -14 11 129 10 244 -2z m-1693 -61 c-13 -30
-29 -66 -35 -81 -6 -16 -19 -28 -27 -28 -18 0 -18 -2 42 108 20 35 37 61 39
59 2 -2 -6 -28 -19 -58z m217 -11 c8 -36 -11 -37 -25 -1 -12 31 -3 68 10 43 5
-8 11 -27 15 -42z m670 -80 c-33 -64 -76 -115 -115 -138 -22 -12 -43 -20 -45
-17 -6 5 43 125 58 145 6 6 20 12 32 12 11 0 34 9 51 20 16 10 31 18 33 16 2
-3 -4 -19 -14 -38z m2272 -44 c29 -7 35 -27 26 -79 l-8 -40 -72 1 c-40 1 -75
4 -78 7 -8 7 33 84 57 108 11 11 27 18 36 15 8 -3 26 -9 39 -12z m-2981 -208
c95 -51 118 -79 118 -141 0 -56 -6 -62 -39 -40 -20 13 -38 16 -78 11 -41 -5
-57 -2 -83 14 -32 19 -33 22 -33 87 0 78 8 113 24 113 6 0 47 -20 91 -44z
m-296 -122 c38 -66 42 -78 32 -100 -15 -33 -14 -60 3 -131 8 -32 16 -80 18
-108 l3 -50 -35 3 c-41 5 -50 14 -101 116 -35 72 -39 87 -39 155 1 42 7 93 14
114 13 37 42 77 55 77 3 0 26 -34 50 -76z m3355 26 c-11 -82 -44 -180 -60
-180 -20 0 -70 26 -113 58 -37 28 -70 92 -71 137 l0 30 125 0 125 0 -6 -45z
m252 -12 c-3 -13 -6 -40 -6 -60 0 -21 -4 -38 -10 -38 -11 0 -14 78 -4 104 9
25 27 19 20 -6z m-848 -349 c26 -6 92 -25 147 -41 55 -17 111 -33 125 -37 l25
-7 3 -188 2 -187 -272 4 c-235 3 -406 17 -427 34 -5 3 -13 100 -27 300 -4 55
-4 108 -1 117 6 14 31 16 192 16 103 0 207 -5 233 -11z m678 -312 c-2 -190 -8
-288 -20 -357 -9 -52 -20 -176 -24 -275 l-8 -180 -57 -142 c-31 -78 -66 -167
-78 -198 -11 -31 -38 -76 -59 -100 -21 -25 -64 -95 -95 -157 -59 -119 -103
-182 -112 -160 -5 13 -54 42 -71 42 -14 0 -165 -99 -179 -118 -20 -25 -15 -61
12 -87 33 -34 61 -31 123 11 97 65 74 17 -41 -88 -73 -66 -74 -66 -74 -37 0
39 -33 72 -71 71 -17 0 -50 -10 -74 -22 -31 -16 -60 -21 -104 -21 -74 2 -105
-18 -108 -68 -1 -25 -10 -40 -34 -59 l-32 -25 0 31 c0 18 13 49 35 78 78 109
93 166 55 204 -11 11 -33 20 -50 20 -29 0 -70 -29 -70 -50 0 -13 -99 -160
-108 -160 -3 0 -20 5 -37 11 -28 10 -49 6 -190 -42 -109 -37 -160 -50 -162
-42 -3 7 -13 23 -24 37 -25 32 -73 35 -103 7 -31 -28 -125 -15 -164 22 -33 32
-89 44 -121 27 -18 -9 -26 -9 -40 4 -9 8 -82 44 -161 79 -133 60 -145 67 -153
96 -10 42 -56 69 -129 77 -32 4 -58 10 -58 15 0 4 -10 17 -22 29 -24 22 -58
26 -88 10 -15 -8 -28 -5 -57 13 -21 14 -43 31 -49 38 -26 34 -58 132 -86 263
-16 77 -38 182 -49 231 -24 114 -79 552 -89 710 -5 83 -14 136 -28 170 -22 55
-39 145 -27 145 17 0 120 -97 171 -162 38 -47 64 -71 83 -74 39 -8 51 -54 51
-193 0 -111 0 -113 29 -142 35 -35 63 -37 176 -10 44 10 112 24 150 30 75 12
197 43 387 98 65 18 129 33 143 33 14 0 37 11 50 25 24 23 25 30 25 144 l0
120 35 -6 c44 -7 82 17 87 54 2 23 14 33 63 58 51 25 74 31 152 33 82 4 95 1
119 -17 35 -27 56 -26 92 4 l29 24 7 -67 c3 -37 6 -89 6 -115 0 -54 18 -104
46 -128 12 -11 47 -18 99 -22 44 -4 112 -13 150 -22 51 -11 135 -15 313 -15
233 0 242 -1 242 -20 0 -106 138 -114 144 -8 1 9 17 27 36 40 56 38 53 106 -6
128 -18 7 -23 19 -29 79 -8 77 -3 100 31 151 19 28 31 35 59 36 47 1 66 22 76
81 4 26 12 61 18 77 11 27 12 28 31 11 17 -16 18 -32 16 -278z m-3378 30 c2
-46 0 -67 -8 -62 -16 10 -38 57 -45 99 -7 37 -7 38 21 34 28 -3 29 -4 32 -71z
m866 -79 c3 -17 5 -32 4 -33 -8 -7 -186 -10 -182 -3 11 18 124 65 160 67 6 1
14 -13 18 -31z m301 -1868 c51 -22 87 -25 114 -10 14 7 23 5 36 -10 10 -11 23
-20 29 -20 13 0 66 -64 66 -81 0 -6 -6 -9 -12 -7 -7 3 -57 20 -110 37 -87 29
-176 81 -177 104 -1 10 2 9 54 -13z m1495 2 c0 -4 -21 -29 -47 -54 -38 -37
-65 -52 -126 -73 -43 -14 -84 -24 -90 -22 -15 5 70 62 168 114 83 44 95 48 95
35z m-822 -174 c3 -15 -4 -18 -32 -18 -24 0 -36 5 -36 14 0 30 63 33 68 4z
m242 2 c0 -12 -28 -25 -36 -17 -9 9 6 27 22 27 8 0 14 -5 14 -10z"/>
<path d="M3147 3269 c-42 -25 -191 -79 -216 -79 -16 0 -40 -9 -55 -21 -32 -25
-36 -77 -7 -103 25 -23 82 -31 121 -18 30 11 35 8 97 -43 73 -60 133 -85 203
-85 56 0 83 24 83 72 0 37 -32 68 -72 68 -46 1 -135 49 -119 65 11 12 132 -20
156 -40 37 -31 65 -38 95 -24 32 15 47 54 35 91 -13 37 -88 85 -156 98 -32 7
-67 16 -80 21 -30 12 -63 11 -85 -2z"/>
<path d="M2073 2350 c-35 -14 -43 -42 -43 -146 l0 -96 38 -38 c32 -32 47 -39
110 -50 40 -6 108 -10 150 -8 66 4 90 10 167 49 100 49 120 72 103 120 -17 48
-65 63 -116 35 -97 -53 -115 -57 -212 -54 l-95 3 -3 76 c-2 57 -7 80 -20 92
-24 21 -53 27 -79 17z"/>
<path d="M3424 1869 c-32 -17 -139 -79 -237 -137 -181 -107 -206 -129 -192
-173 7 -21 52 -59 69 -59 6 0 87 45 180 100 92 56 196 115 229 131 79 40 107
66 107 99 0 33 -38 70 -72 70 -14 0 -52 -14 -84 -31z"/>
<path d="M2665 1825 c-55 -30 -119 -63 -142 -75 -23 -11 -45 -25 -48 -30 -4
-6 -78 -10 -179 -10 -129 0 -184 -4 -216 -15 -61 -21 -73 -19 -120 20 -23 19
-51 35 -61 35 -28 0 -69 -44 -69 -75 0 -29 59 -99 101 -121 37 -18 140 -18
186 1 27 11 77 15 209 15 l173 0 73 36 c40 21 75 40 78 44 3 4 34 22 70 39 87
40 140 85 140 117 0 32 -42 74 -72 73 -13 0 -68 -25 -123 -54z"/>
</g>
</svg>
